<mxfile host="app.diagrams.net" agent="Mozilla/5.0 (Macintosh; Intel Mac OS X 10_15_7) AppleWebKit/537.36 (KHTML, like Gecko) Chrome/130.0.0.0 Safari/537.36" version="24.8.3">
  <diagram name="Page-1" id="UV95-Z9hOKZxvBKv6ZkK">
    <mxGraphModel dx="681" dy="379" grid="1" gridSize="10" guides="1" tooltips="1" connect="1" arrows="1" fold="1" page="0" pageScale="1" pageWidth="827" pageHeight="1169" math="0" shadow="0">
      <root>
        <mxCell id="0" />
        <mxCell id="1" parent="0" />
        <mxCell id="0NO6OrLXgTlxafmzhbCR-1" value="register" style="rounded=0;whiteSpace=wrap;html=1;" vertex="1" parent="1">
          <mxGeometry x="320" y="80" width="120" height="60" as="geometry" />
        </mxCell>
        <mxCell id="0NO6OrLXgTlxafmzhbCR-5" style="edgeStyle=orthogonalEdgeStyle;rounded=0;orthogonalLoop=1;jettySize=auto;html=1;exitX=0.5;exitY=1;exitDx=0;exitDy=0;" edge="1" parent="1" source="0NO6OrLXgTlxafmzhbCR-1" target="0NO6OrLXgTlxafmzhbCR-4">
          <mxGeometry relative="1" as="geometry">
            <mxPoint x="380" y="270" as="sourcePoint" />
          </mxGeometry>
        </mxCell>
        <mxCell id="0NO6OrLXgTlxafmzhbCR-7" style="edgeStyle=orthogonalEdgeStyle;rounded=0;orthogonalLoop=1;jettySize=auto;html=1;exitX=0.5;exitY=1;exitDx=0;exitDy=0;entryX=0.5;entryY=0;entryDx=0;entryDy=0;" edge="1" parent="1" source="0NO6OrLXgTlxafmzhbCR-4" target="0NO6OrLXgTlxafmzhbCR-6">
          <mxGeometry relative="1" as="geometry" />
        </mxCell>
        <mxCell id="0NO6OrLXgTlxafmzhbCR-4" value="Display UserRegistrationForm" style="rounded=0;whiteSpace=wrap;html=1;" vertex="1" parent="1">
          <mxGeometry x="315" y="180" width="130" height="60" as="geometry" />
        </mxCell>
        <mxCell id="0NO6OrLXgTlxafmzhbCR-8" style="edgeStyle=orthogonalEdgeStyle;rounded=0;orthogonalLoop=1;jettySize=auto;html=1;exitX=0;exitY=0.5;exitDx=0;exitDy=0;entryX=0;entryY=0.5;entryDx=0;entryDy=0;" edge="1" parent="1" source="0NO6OrLXgTlxafmzhbCR-6" target="0NO6OrLXgTlxafmzhbCR-4">
          <mxGeometry relative="1" as="geometry">
            <Array as="points">
              <mxPoint x="280" y="310" />
              <mxPoint x="280" y="210" />
            </Array>
          </mxGeometry>
        </mxCell>
        <mxCell id="0NO6OrLXgTlxafmzhbCR-9" value="no" style="edgeLabel;html=1;align=center;verticalAlign=middle;resizable=0;points=[];" vertex="1" connectable="0" parent="0NO6OrLXgTlxafmzhbCR-8">
          <mxGeometry x="0.0432" y="2" relative="1" as="geometry">
            <mxPoint as="offset" />
          </mxGeometry>
        </mxCell>
        <mxCell id="0NO6OrLXgTlxafmzhbCR-11" style="edgeStyle=orthogonalEdgeStyle;rounded=0;orthogonalLoop=1;jettySize=auto;html=1;exitX=0.5;exitY=1;exitDx=0;exitDy=0;entryX=0.5;entryY=0;entryDx=0;entryDy=0;" edge="1" parent="1" source="0NO6OrLXgTlxafmzhbCR-6" target="0NO6OrLXgTlxafmzhbCR-10">
          <mxGeometry relative="1" as="geometry" />
        </mxCell>
        <mxCell id="0NO6OrLXgTlxafmzhbCR-6" value="is form valid?" style="rhombus;whiteSpace=wrap;html=1;" vertex="1" parent="1">
          <mxGeometry x="330" y="270" width="100" height="80" as="geometry" />
        </mxCell>
        <mxCell id="0NO6OrLXgTlxafmzhbCR-10" value="create account, redirect to login page" style="rounded=0;whiteSpace=wrap;html=1;" vertex="1" parent="1">
          <mxGeometry x="320" y="380" width="120" height="60" as="geometry" />
        </mxCell>
      </root>
    </mxGraphModel>
  </diagram>
</mxfile>
